<svg xmlns="http://www.w3.org/2000/svg" version="1.1" xmlns:xlink="http://www.w3.org/1999/xlink" xmlns:svgjs="http://svgjs.dev/svgjs" width="2000" height="1247" viewBox="0 0 2000 1247"><g transform="matrix(1,0,0,1,-1.2121212121212466,7.933987404408413)"><svg viewBox="0 0 396 247" data-background-color="#8e4739" preserveAspectRatio="xMidYMid meet" height="1247" width="2000" xmlns="http://www.w3.org/2000/svg" xmlns:xlink="http://www.w3.org/1999/xlink"><g id="tight-bounds" transform="matrix(1,0,0,1,0.2400000000000091,-0.09999999999999432)"><svg viewBox="0 0 395.52 247.2" height="247.2" width="395.52"><g><svg></svg></g><g><svg viewBox="0 0 395.52 247.2" height="247.2" width="395.52"><g transform="matrix(1,0,0,1,119.68810050534857,47.215199999999996)"><svg viewBox="0 0 156.14379898930284 152.7696" height="152.7696" width="156.14379898930284"><g><svg viewBox="0 0 245.65351679999995 240.3450520804882" height="152.7696" width="156.14379898930284"><g><rect width="245.65351679999995" height="6.318450685231655" x="0" y="117.30127340141915" fill="#ddd2c6" opacity="1" stroke-width="0" stroke="transparent" fill-opacity="1" class="rect-qz-0" data-fill-palette-color="primary" rx="1%" id="qz-0" data-palette-color="#ddd2c6"></rect></g><g transform="matrix(1,0,0,1,0.6110783999999825,140.16017090662896)"><svg viewBox="0 0 244.43135999999998 100.18488117385922" height="100.18488117385922" width="244.43135999999998"><g id="textblocktransform"><svg viewBox="0 0 244.43135999999998 100.18488117385922" height="100.18488117385922" width="244.43135999999998" id="textblock"><g><svg viewBox="0 0 244.43135999999998 70.06407606015924" height="70.06407606015924" width="244.43135999999998"><g transform="matrix(1,0,0,1,0,0)"><svg width="244.43135999999998" viewBox="0 -37 169.54 48.6" height="70.06407606015924" data-palette-color="#ddd2c6"><path d="M7.7 0.6L7.7 0.6Q5.4 0.6 3.38-0.2 1.35-1 0-2.3L0-2.3 2.3-5.95Q3.3-4.9 4.7-4.2 6.1-3.5 7.55-3.5L7.55-3.5Q9.95-3.5 11.35-5.23 12.75-6.95 12.75-11.05L12.75-11.05 12.75-35 17.5-35 17.5-11.55Q17.5-5.2 14.8-2.3 12.1 0.6 7.7 0.6ZM36.45 0.6L36.45 0.6Q32.75 0.6 29.8-1.13 26.85-2.85 25.17-5.93 23.5-9 23.5-13L23.5-13Q23.5-17.2 25.2-20.25 26.9-23.3 29.85-24.95 32.8-26.6 36.45-26.6L36.45-26.6Q40.1-26.6 43.02-24.95 45.95-23.3 47.67-20.28 49.4-17.25 49.4-13.1L49.4-13.1Q49.4-8.95 47.7-5.88 46-2.8 43.07-1.1 40.15 0.6 36.45 0.6ZM36.45-3.4L36.45-3.4Q40.4-3.4 42.6-6.08 44.8-8.75 44.8-13L44.8-13Q44.8-15.6 43.7-17.78 42.6-19.95 40.72-21.28 38.85-22.6 36.45-22.6L36.45-22.6Q32.5-22.6 30.3-20 28.1-17.4 28.1-13.1L28.1-13.1Q28.1-10.5 29.2-8.28 30.3-6.05 32.17-4.73 34.05-3.4 36.45-3.4ZM66.34 0.6L66.34 0.6Q62.65 0.6 59.7-1.13 56.75-2.85 55.07-5.93 53.4-9 53.4-13L53.4-13Q53.4-17.2 55.1-20.25 56.8-23.3 59.75-24.95 62.7-26.6 66.34-26.6L66.34-26.6Q70-26.6 72.92-24.95 75.84-23.3 77.57-20.28 79.3-17.25 79.3-13.1L79.3-13.1Q79.3-8.95 77.59-5.88 75.9-2.8 72.97-1.1 70.05 0.6 66.34 0.6ZM66.34-3.4L66.34-3.4Q70.3-3.4 72.5-6.08 74.7-8.75 74.7-13L74.7-13Q74.7-15.6 73.59-17.78 72.5-19.95 70.62-21.28 68.75-22.6 66.34-22.6L66.34-22.6Q62.4-22.6 60.2-20 58-17.4 58-13.1L58-13.1Q58-10.5 59.1-8.28 60.2-6.05 62.07-4.73 63.95-3.4 66.34-3.4ZM94.84 11.6L94.84 11.6Q92.54 11.6 90.37 11.05 88.19 10.5 86.49 9.4L86.49 9.4 88.14 5.5Q89.34 6.45 90.94 7.08 92.54 7.7 94.84 7.7L94.84 7.7Q98.39 7.7 100.42 5.83 102.44 3.95 102.44-0.15L102.44-0.15 102.44-3.35Q101.44-2.15 99.57-1.07 97.69 0 95.09 0L95.09 0Q92.14 0 89.49-1.53 86.84-3.05 85.19-6 83.54-8.95 83.54-13.1L83.54-13.1Q83.54-17 85.17-20.05 86.79-23.1 89.54-24.85 92.29-26.6 95.59-26.6L95.59-26.6Q97.79-26.6 99.59-25.85 101.39-25.1 102.69-24L102.69-24 102.69-26 106.79-26 106.79-0.6Q106.79 3.7 105.29 6.4 103.79 9.1 101.12 10.35 98.44 11.6 94.84 11.6ZM96.09-4L96.09-4Q98.09-4 99.69-4.9 101.29-5.8 102.29-7L102.29-7 102.29-20.6Q101.19-21.4 99.64-22.05 98.09-22.7 96.04-22.7L96.04-22.7Q93.99-22.7 92.19-21.6 90.39-20.5 89.27-18.43 88.14-16.35 88.14-13.35L88.14-13.35Q88.14-10.5 89.27-8.4 90.39-6.3 92.19-5.15 93.99-4 96.09-4ZM124.49 0.6L124.49 0.6Q121.24 0.6 118.59-1.05 115.94-2.7 114.37-5.73 112.79-8.75 112.79-12.85L112.79-12.85Q112.79-16.75 114.37-19.85 115.94-22.95 118.72-24.78 121.49-26.6 125.09-26.6L125.09-26.6Q127.34-26.6 129.17-25.83 130.99-25.05 132.34-23.9L132.34-23.9 132.34-26 136.44-26 136.44-6.3Q136.44-4.4 137.37-3.83 138.29-3.25 139.39-3.25L139.39-3.25 138.44 0.25Q133.64 0.25 132.64-3.65L132.64-3.65Q131.49-2.05 129.52-0.73 127.54 0.6 124.49 0.6ZM125.49-3.4L125.49-3.4Q127.39-3.4 129.09-4.33 130.79-5.25 131.94-6.65L131.94-6.65 131.94-20.6Q130.59-21.55 128.97-22.13 127.34-22.7 125.54-22.7L125.54-22.7Q123.14-22.7 121.32-21.48 119.49-20.25 118.44-18.07 117.39-15.9 117.39-13L117.39-13Q117.39-10.2 118.44-8.03 119.49-5.85 121.34-4.63 123.19-3.4 125.49-3.4ZM154.74 0.6L154.74 0.6Q151.54 0.6 148.89-1.05 146.24-2.7 144.69-5.73 143.14-8.75 143.14-12.85L143.14-12.85Q143.14-16.8 144.71-19.9 146.29-23 148.91-24.8 151.54-26.6 154.69-26.6L154.69-26.6Q157.29-26.6 159.16-25.55 161.04-24.5 162.09-23.4L162.09-23.4 162.09-37 166.59-37 166.59-6.3Q166.59-4.4 167.51-3.83 168.44-3.25 169.54-3.25L169.54-3.25 168.59 0.25Q163.84 0.25 162.79-3.55L162.79-3.55Q161.69-2 159.71-0.7 157.74 0.6 154.74 0.6ZM155.74-3.4L155.74-3.4Q157.59-3.4 159.26-4.28 160.94-5.15 162.09-6.55L162.09-6.55 162.09-19.45Q161.14-20.65 159.44-21.68 157.74-22.7 155.69-22.7L155.69-22.7Q153.29-22.7 151.49-21.4 149.69-20.1 148.71-17.93 147.74-15.75 147.74-13L147.74-13Q147.74-10.25 148.79-8.08 149.84-5.9 151.66-4.65 153.49-3.4 155.74-3.4Z" opacity="1" transform="matrix(1,0,0,1,0,0)" fill="#ddd2c6" class="wordmark-text-0" data-fill-palette-color="primary" id="text-0"></path></svg></g></svg></g><g transform="matrix(1,0,0,1,0,86.6045228801374)"><svg viewBox="0 0 244.43135999999998 13.580358293721835" height="13.580358293721835" width="244.43135999999998"><g transform="matrix(1,0,0,1,0,0)"><svg width="244.43135999999998" viewBox="3.56 -34.18 859.996796875 43.95" height="13.580358293721835" data-palette-color="#ddd2c6"><g class="slogan-text-1" data-fill-palette-color="secondary" id="text-1"><path d="M3.56-5.62L3.56-28.56Q3.56-29.61 3.66-30.62 3.76-31.62 4.14-32.41 4.52-33.2 5.25-33.69 5.98-34.18 7.28-34.18L7.28-34.18Q8.54-34.18 9.29-33.69 10.03-33.2 10.41-32.41 10.79-31.62 10.89-30.62 10.99-29.61 10.99-28.56L10.99-28.56 10.99-20.9 17.68-20.9 17.68-28.56Q17.68-29.61 17.77-30.62 17.87-31.62 18.25-32.41 18.63-33.2 19.36-33.69 20.09-34.18 21.39-34.18L21.39-34.18Q22.66-34.18 23.4-33.69 24.15-33.2 24.52-32.41 24.9-31.62 25-30.62 25.1-29.61 25.1-28.56L25.1-28.56 25.1-5.62Q25.1-4.54 25-3.54 24.9-2.54 24.52-1.75 24.15-0.95 23.4-0.48 22.66 0 21.39 0L21.39 0Q20.09 0 19.36-0.48 18.63-0.95 18.25-1.75 17.87-2.54 17.77-3.54 17.68-4.54 17.68-5.62L17.68-5.62 17.68-13.72 10.99-13.72 10.99-5.62Q10.99-4.54 10.89-3.54 10.79-2.54 10.41-1.75 10.03-0.95 9.29-0.48 8.54 0 7.28 0L7.28 0Q5.98 0 5.25-0.48 4.52-0.95 4.14-1.75 3.76-2.54 3.66-3.54 3.56-4.54 3.56-5.62L3.56-5.62ZM50.73-18.85L50.73-5.52Q50.73-4.49 50.66-3.5 50.58-2.51 50.22-1.73 49.85-0.95 49.12-0.48 48.39 0 47.07 0L47.07 0Q45.73 0 44.97-0.45 44.21-0.9 43.85-1.55 43.48-2.2 43.39-2.91 43.31-3.61 43.31-4.1L43.31-4.1Q43.09-3.39 42.69-2.66 42.28-1.93 41.65-1.34 41.01-0.76 40.12-0.38 39.23 0 38.03 0L38.03 0Q36.69 0 35.35-0.44 34.01-0.88 32.93-1.9 31.86-2.93 31.19-4.58 30.52-6.23 30.52-8.64L30.52-8.64 30.52-15.72Q30.52-18.16 31.19-19.81 31.86-21.46 32.93-22.47 34.01-23.49 35.35-23.93 36.69-24.37 38.03-24.37L38.03-24.37Q39.23-24.37 40.12-24 41.01-23.63 41.65-23.05 42.28-22.46 42.69-21.73 43.09-21 43.31-20.26L43.31-20.26Q43.31-21.48 43.65-22.29 43.99-23.1 44.53-23.57 45.07-24.05 45.74-24.23 46.41-24.41 47.07-24.41L47.07-24.41Q48.29-24.41 49.02-23.94 49.75-23.46 50.13-22.69 50.51-21.92 50.62-20.91 50.73-19.9 50.73-18.85L50.73-18.85ZM38.03-15.19L38.03-9.28Q38.03-8.62 38.08-7.98 38.13-7.35 38.35-6.84 38.57-6.32 39-6.02 39.43-5.71 40.18-5.71L40.18-5.71Q41.14-5.71 41.73-6.14 42.33-6.57 42.67-7.46 43.02-8.35 43.15-9.7 43.28-11.06 43.31-12.94L43.31-12.94Q43.31-13.7 43.17-14.69 43.04-15.67 42.7-16.55 42.36-17.43 41.75-18.04 41.14-18.65 40.18-18.65L40.18-18.65Q39.43-18.65 39-18.35 38.57-18.04 38.35-17.55 38.13-17.07 38.08-16.44 38.03-15.82 38.03-15.19L38.03-15.19ZM72.16-20.75L72.16-20.75Q72.16-18.85 71.22-17.97 70.28-17.09 68.55-17.09L68.55-17.09Q68.31-17.09 67.85-17.05 67.4-17.02 66.89-16.86 66.38-16.7 65.85-16.39 65.33-16.09 64.89-15.56 64.45-15.04 64.18-14.23 63.91-13.43 63.91-12.3L63.91-12.3 63.91-5.32Q63.91-4.32 63.8-3.37 63.69-2.42 63.3-1.67 62.91-0.93 62.18-0.46 61.45 0 60.2 0L60.2 0Q58.98 0 58.27-0.46 57.56-0.93 57.18-1.67 56.81-2.42 56.7-3.37 56.59-4.32 56.59-5.32L56.59-5.32 56.59-18.99Q56.59-20.02 56.7-20.98 56.81-21.95 57.18-22.71 57.56-23.46 58.27-23.91 58.98-24.37 60.2-24.37L60.2-24.37Q61.45-24.37 62.12-23.82 62.79-23.27 63.11-22.4 63.42-21.53 63.47-20.47 63.52-19.41 63.52-18.41L63.52-18.41 63.91-18.41Q64.25-19.78 64.81-20.89 65.38-22 66.06-22.77 66.74-23.54 67.52-23.95 68.31-24.37 69.09-24.37L69.09-24.37Q70.04-24.37 70.64-24.16 71.24-23.95 71.58-23.51 71.92-23.07 72.04-22.39 72.16-21.7 72.16-20.75ZM92.72-18.26L87.3-3.81Q86.76-2.39 86.3-1.62 85.83-0.85 85.39-0.49 84.95-0.12 84.51-0.06 84.07 0 83.59 0L83.59 0Q83.05 0 82.59-0.06 82.12-0.12 81.66-0.48 81.19-0.83 80.71-1.6 80.22-2.37 79.68-3.81L79.68-3.81 74.16-18.26Q73.94-18.85 73.76-19.52 73.58-20.19 73.58-20.85L73.58-20.85Q73.58-21.56 73.76-22.2 73.94-22.85 74.36-23.34 74.77-23.83 75.43-24.12 76.09-24.41 77.04-24.41L77.04-24.41Q77.73-24.41 78.3-24.12 78.87-23.83 79.33-23.34 79.78-22.85 80.12-22.22 80.46-21.58 80.66-20.9L80.66-20.9 83.39-12.01 83.78-12.01 86.32-20.9Q86.49-21.51 86.81-22.14 87.13-22.78 87.58-23.28 88.03-23.78 88.65-24.1 89.27-24.41 90.08-24.41L90.08-24.41Q90.96-24.41 91.57-24.11 92.18-23.8 92.57-23.3 92.96-22.8 93.13-22.14 93.3-21.48 93.3-20.8L93.3-20.8Q93.3-20.17 93.14-19.53 92.99-18.9 92.72-18.26L92.72-18.26ZM116.93-15.43L116.93-13.92Q116.93-13.53 116.88-13 116.84-12.48 116.51-12 116.18-11.52 115.47-11.18 114.76-10.84 113.47-10.84L113.47-10.84 103.75-10.84 103.75-8.5Q103.75-7.91 103.9-7.28 104.04-6.64 104.4-6.1 104.75-5.57 105.34-5.22 105.92-4.88 106.78-4.88L106.78-4.88Q107.75-4.88 108.28-5.11 108.8-5.35 109.11-5.69 109.41-6.03 109.66-6.42 109.9-6.81 110.3-7.15 110.71-7.5 111.43-7.73 112.15-7.96 113.42-7.96L113.42-7.96Q114.03-7.96 114.6-7.86 115.18-7.76 115.62-7.5 116.05-7.23 116.32-6.75 116.59-6.27 116.59-5.52L116.59-5.52Q116.59-3.93 115.59-2.87 114.59-1.81 113.08-1.17 111.56-0.54 109.79-0.27 108.02 0 106.48 0L106.48 0Q104.46-0.02 102.63-0.51 100.8-1 99.39-2.08 97.99-3.15 97.16-4.88 96.33-6.62 96.33-9.13L96.33-9.13 96.33-14.84Q96.33-17.16 96.88-18.77 97.43-20.39 98.31-21.46 99.18-22.53 100.28-23.13 101.38-23.73 102.5-24.02 103.63-24.32 104.64-24.39 105.65-24.46 106.39-24.46L106.39-24.46Q108.85-24.46 110.6-24.02 112.34-23.58 113.52-22.88 114.69-22.17 115.37-21.24 116.05-20.31 116.4-19.32 116.74-18.33 116.84-17.32 116.93-16.31 116.93-15.43L116.93-15.43ZM103.75-16.21L103.75-14.5 109.85-14.5Q109.85-15.65 109.79-16.54 109.73-17.43 109.43-18.04 109.12-18.65 108.47-18.97 107.83-19.29 106.63-19.29L106.63-19.29Q105.63-19.29 105.06-18.97 104.48-18.65 104.19-18.18 103.9-17.7 103.82-17.16 103.75-16.63 103.75-16.21L103.75-16.21ZM128.41-18.02L128.41-18.02Q128.41-17.53 128.72-17.11 129.04-16.7 129.59-16.32 130.14-15.94 130.86-15.58 131.58-15.21 132.36-14.84L132.36-14.84Q133.56-14.26 134.8-13.59 136.05-12.92 137.07-12.01 138.1-11.11 138.74-9.92 139.39-8.74 139.39-7.13L139.39-7.13Q139.39-5.66 138.96-4.54 138.54-3.42 137.83-2.6 137.12-1.78 136.18-1.25 135.24-0.71 134.2-0.39 133.17-0.07 132.09 0.06 131.02 0.2 130.07 0.2L130.07 0.2Q128.19 0.2 126.79-0.12 125.4-0.44 124.4-0.96 123.4-1.49 122.75-2.16 122.11-2.83 121.74-3.56 121.37-4.3 121.23-5.02 121.08-5.74 121.08-6.35L121.08-6.35Q121.08-7.81 121.9-8.5 122.72-9.18 124.4-9.18L124.4-9.18Q125.62-9.18 126.4-8.52 127.18-7.86 127.23-6.4L127.23-6.4Q127.26-5.91 127.51-5.62 127.77-5.32 128.17-5.14 128.58-4.96 129.06-4.9 129.55-4.83 130.02-4.83L130.02-4.83Q130.97-4.83 131.57-5.33 132.17-5.83 132.17-6.64L132.17-6.64Q132.17-7.32 131.76-7.92 131.36-8.52 130.7-9.03 130.04-9.55 129.2-10.02 128.36-10.5 127.48-10.99L127.48-10.99Q126.38-11.57 125.27-12.23 124.16-12.89 123.25-13.7 122.35-14.5 121.79-15.52 121.23-16.53 121.23-17.82L121.23-17.82Q121.23-19.73 121.85-21.01 122.47-22.29 123.67-23.08 124.87-23.88 126.59-24.22 128.31-24.56 130.51-24.61L130.51-24.61 130.9-24.61Q132.87-24.61 134.25-24.27 135.63-23.93 136.55-23.38 137.46-22.83 137.99-22.14 138.51-21.46 138.77-20.76 139.03-20.07 139.09-19.43 139.15-18.8 139.15-18.36L139.15-18.36Q139.15-17.63 138.84-17.15 138.54-16.67 138.04-16.39 137.54-16.11 136.9-16 136.27-15.89 135.58-15.87L135.58-15.87Q135-15.87 134.52-16.06 134.05-16.26 133.7-16.55 133.36-16.85 133.18-17.21 133-17.58 133-17.92L133-17.92Q132.95-18.85 132.25-19.34 131.55-19.82 130.55-19.82L130.55-19.82Q130.14-19.82 129.76-19.74 129.38-19.65 129.08-19.45 128.77-19.24 128.59-18.9 128.41-18.55 128.41-18.02ZM146.13-24.41L147.49-24.41 147.49-28.71Q147.49-29.74 147.6-30.71 147.71-31.69 148.11-32.46 148.5-33.23 149.23-33.7 149.96-34.18 151.21-34.18L151.21-34.18Q152.43-34.18 153.16-33.7 153.89-33.23 154.27-32.46 154.65-31.69 154.76-30.71 154.87-29.74 154.87-28.71L154.87-28.71 154.87-24.41 156.87-24.41Q157.5-24.41 158.14-24.35 158.77-24.29 159.27-24 159.78-23.71 160.08-23.12 160.39-22.53 160.39-21.48L160.39-21.48Q160.39-20.48 160.08-19.9 159.78-19.31 159.27-19.02 158.77-18.73 158.14-18.64 157.5-18.55 156.87-18.55L156.87-18.55 154.87-18.55 154.87-10.01Q154.87-9.52 154.9-8.97 154.94-8.42 155.16-7.96 155.38-7.5 155.82-7.19 156.26-6.88 157.07-6.88L157.07-6.88Q157.94-6.88 158.57-6.75 159.19-6.62 159.59-6.27 159.99-5.93 160.19-5.32 160.39-4.71 160.39-3.76L160.39-3.76Q160.39-2.78 159.93-2.08 159.48-1.37 158.73-0.9 157.97-0.44 156.97-0.22 155.97 0 154.87 0L154.87 0Q153.13 0 151.9-0.37 150.67-0.73 149.85-1.4 149.03-2.08 148.56-3.02 148.08-3.96 147.85-5.13 147.62-6.3 147.56-7.65 147.49-9.01 147.49-10.5L147.49-10.5 147.49-18.55 146.13-18.55Q145.49-18.55 144.87-18.64 144.25-18.73 143.76-19.02 143.27-19.31 142.97-19.9 142.66-20.48 142.66-21.48L142.66-21.48Q142.66-22.53 142.97-23.12 143.27-23.71 143.76-24 144.25-24.29 144.87-24.35 145.49-24.41 146.13-24.41L146.13-24.41ZM166.19-5.47L166.19-18.95Q166.19-19.97 166.3-20.95 166.41-21.92 166.8-22.69 167.19-23.46 167.93-23.94 168.66-24.41 169.9-24.41L169.9-24.41Q171.15-24.41 171.88-23.94 172.61-23.46 173-22.69 173.4-21.92 173.51-20.95 173.62-19.97 173.62-18.95L173.62-18.95 173.62-5.47Q173.62-4.44 173.51-3.45 173.4-2.47 173-1.7 172.61-0.93 171.88-0.46 171.15 0 169.9 0L169.9 0Q168.66 0 167.93-0.46 167.19-0.93 166.8-1.7 166.41-2.47 166.3-3.45 166.19-4.44 166.19-5.47L166.19-5.47ZM173.66-30.47L173.66-30.47Q173.66-28.59 172.69-27.67 171.71-26.76 169.95-26.76L169.95-26.76Q168.2-26.76 167.22-27.67 166.24-28.59 166.24-30.47L166.24-30.47Q166.24-32.42 167.22-33.3 168.2-34.18 169.95-34.18L169.95-34.18Q171.83-34.18 172.75-33.3 173.66-32.42 173.66-30.47ZM201.3-15.72L201.3-5.57Q201.3-4.52 201.18-3.52 201.05-2.51 200.65-1.73 200.25-0.95 199.5-0.48 198.76 0 197.49 0L197.49 0Q196.24 0 195.51-0.48 194.78-0.95 194.39-1.73 194-2.51 193.89-3.52 193.78-4.52 193.78-5.57L193.78-5.57 193.78-15.09Q193.78-15.77 193.72-16.43 193.66-17.09 193.44-17.59 193.22-18.09 192.79-18.4 192.36-18.7 191.63-18.7L191.63-18.7Q190.63-18.7 190.02-18.04 189.41-17.38 189.05-16.24 188.7-15.09 188.58-13.54 188.46-11.99 188.46-10.21L188.46-10.21 188.46-5.57Q188.46-4.52 188.33-3.52 188.21-2.51 187.81-1.73 187.41-0.95 186.66-0.48 185.92 0 184.65 0L184.65 0Q183.4 0 182.67-0.48 181.94-0.95 181.55-1.73 181.16-2.51 181.05-3.52 180.94-4.52 180.94-5.57L180.94-5.57 180.94-18.9Q180.94-19.95 181.01-20.94 181.08-21.92 181.45-22.69 181.82-23.46 182.56-23.94 183.31-24.41 184.65-24.41L184.65-24.41Q185.99-24.41 186.75-23.96 187.5-23.51 187.88-22.88 188.26-22.24 188.36-21.53 188.46-20.83 188.46-20.31L188.46-20.31Q188.65-21.02 189.07-21.75 189.48-22.49 190.13-23.07 190.78-23.66 191.68-24.04 192.58-24.41 193.78-24.41L193.78-24.41Q195.12-24.41 196.46-23.97 197.81-23.54 198.88-22.51 199.96-21.48 200.63-19.82 201.3-18.16 201.3-15.72L201.3-15.72ZM226.64-18.9L226.64 0.73Q226.64 2.93 226.04 4.44 225.44 5.96 224.51 6.96 223.59 7.96 222.45 8.52 221.32 9.08 220.23 9.36 219.14 9.64 218.24 9.7 217.34 9.77 216.87 9.77L216.87 9.77Q215.14 9.77 213.41 9.52 211.67 9.28 210.24 8.62 208.82 7.96 207.88 6.84 206.94 5.71 206.81 3.96L206.81 3.96Q206.81 3.66 206.91 3.3 207.01 2.93 207.35 2.6 207.69 2.27 208.38 2.04 209.06 1.81 210.23 1.81L210.23 1.81Q211.65 1.81 212.4 2.04 213.16 2.27 213.53 2.6 213.89 2.93 214 3.31 214.11 3.69 214.24 4L214.24 4Q214.43 4.52 215 4.72 215.58 4.93 216.58 4.93L216.58 4.93Q217.48 4.93 218.01 4.52 218.53 4.1 218.8 3.53 219.07 2.95 219.14 2.36 219.22 1.76 219.22 1.37L219.22 1.37 219.22-4.1Q219-3.37 218.59-2.64 218.19-1.9 217.56-1.32 216.92-0.73 216.03-0.37 215.14 0 213.94 0L213.94 0Q212.6 0 211.26-0.44 209.91-0.88 208.83-1.89 207.74-2.91 207.06-4.57 206.37-6.23 206.37-8.69L206.37-8.69 206.37-15.77Q206.37-18.19 207.06-19.84 207.74-21.48 208.83-22.51 209.91-23.54 211.26-23.97 212.6-24.41 213.94-24.41L213.94-24.41Q215.14-24.41 216.03-24.04 216.92-23.66 217.56-23.07 218.19-22.49 218.59-21.75 219-21.02 219.22-20.31L219.22-20.31Q219.22-20.8 219.3-21.51 219.39-22.22 219.75-22.86 220.12-23.51 220.88-23.96 221.63-24.41 222.98-24.41L222.98-24.41Q224.29-24.41 225.03-23.94 225.76-23.46 226.12-22.68 226.49-21.9 226.56-20.91 226.64-19.92 226.64-18.9L226.64-18.9ZM213.94-15.14L213.94-9.23Q213.94-8.59 213.99-7.96 214.04-7.32 214.26-6.82 214.48-6.32 214.91-6.02 215.33-5.71 216.09-5.71L216.09-5.71Q217.04-5.71 217.65-6.32 218.26-6.93 218.61-7.82 218.95-8.72 219.08-9.7 219.22-10.69 219.22-11.47L219.22-11.47Q219.19-13.33 219.06-14.7 218.92-16.06 218.58-16.96 218.24-17.85 217.64-18.27 217.04-18.7 216.09-18.7L216.09-18.7Q215.33-18.7 214.91-18.4 214.48-18.09 214.26-17.58 214.04-17.07 213.99-16.43 213.94-15.8 213.94-15.14L213.94-15.14Z" fill="#ddd2c6" data-fill-palette-color="primary"></path><path d="M275.759-5.62L275.759-28.56Q275.759-29.61 275.859-30.62 275.959-31.62 276.339-32.41 276.719-33.2 277.449-33.69 278.179-34.18 279.479-34.18L279.479-34.18Q280.739-34.18 281.489-33.69 282.229-33.2 282.609-32.41 282.989-31.62 283.089-30.62 283.189-29.61 283.189-28.56L283.189-28.56 283.189-20.9 289.879-20.9 289.879-28.56Q289.879-29.61 289.969-30.62 290.069-31.62 290.449-32.41 290.829-33.2 291.559-33.69 292.289-34.18 293.589-34.18L293.589-34.18Q294.859-34.18 295.599-33.69 296.349-33.2 296.719-32.41 297.099-31.62 297.199-30.62 297.299-29.61 297.299-28.56L297.299-28.56 297.299-5.62Q297.299-4.54 297.199-3.54 297.099-2.54 296.719-1.75 296.349-0.95 295.599-0.48 294.859 0 293.589 0L293.589 0Q292.289 0 291.559-0.48 290.829-0.95 290.449-1.75 290.069-2.54 289.969-3.54 289.879-4.54 289.879-5.62L289.879-5.62 289.879-13.72 283.189-13.72 283.189-5.62Q283.189-4.54 283.089-3.54 282.989-2.54 282.609-1.75 282.229-0.95 281.489-0.48 280.739 0 279.479 0L279.479 0Q278.179 0 277.449-0.48 276.719-0.95 276.339-1.75 275.959-2.54 275.859-3.54 275.759-4.54 275.759-5.62L275.759-5.62ZM323.519-15.43L323.519-13.92Q323.519-13.53 323.469-13 323.419-12.48 323.089-12 322.759-11.52 322.049-11.18 321.339-10.84 320.049-10.84L320.049-10.84 310.329-10.84 310.329-8.5Q310.329-7.91 310.479-7.28 310.629-6.64 310.979-6.1 311.329-5.57 311.919-5.22 312.509-4.88 313.359-4.88L313.359-4.88Q314.339-4.88 314.859-5.11 315.389-5.35 315.689-5.69 315.999-6.03 316.239-6.42 316.479-6.81 316.889-7.15 317.289-7.5 318.009-7.73 318.729-7.96 319.999-7.96L319.999-7.96Q320.609-7.96 321.179-7.86 321.759-7.76 322.199-7.5 322.639-7.23 322.909-6.75 323.169-6.27 323.169-5.52L323.169-5.52Q323.169-3.93 322.169-2.87 321.169-1.81 319.659-1.17 318.139-0.54 316.369-0.27 314.599 0 313.069 0L313.069 0Q311.039-0.02 309.209-0.51 307.379-1 305.969-2.08 304.569-3.15 303.739-4.88 302.909-6.62 302.909-9.13L302.909-9.13 302.909-14.84Q302.909-17.16 303.459-18.77 304.009-20.39 304.889-21.46 305.769-22.53 306.869-23.13 307.959-23.73 309.089-24.02 310.209-24.32 311.219-24.39 312.239-24.46 312.969-24.46L312.969-24.46Q315.429-24.46 317.179-24.02 318.929-23.58 320.099-22.88 321.269-22.17 321.949-21.24 322.639-20.31 322.979-19.32 323.319-18.33 323.419-17.32 323.519-16.31 323.519-15.43L323.519-15.43ZM310.329-16.21L310.329-14.5 316.439-14.5Q316.439-15.65 316.369-16.54 316.309-17.43 316.009-18.04 315.699-18.65 315.059-18.97 314.409-19.29 313.209-19.29L313.209-19.29Q312.209-19.29 311.639-18.97 311.059-18.65 310.769-18.18 310.479-17.7 310.409-17.16 310.329-16.63 310.329-16.21L310.329-16.21ZM347.829-18.85L347.829-5.52Q347.829-4.49 347.759-3.5 347.679-2.51 347.319-1.73 346.949-0.95 346.219-0.48 345.489 0 344.169 0L344.169 0Q342.819 0 342.069-0.45 341.309-0.9 340.939-1.55 340.579-2.2 340.489-2.91 340.409-3.61 340.409-4.1L340.409-4.1Q340.189-3.39 339.789-2.66 339.379-1.93 338.749-1.34 338.109-0.76 337.219-0.38 336.329 0 335.129 0L335.129 0Q333.789 0 332.449-0.44 331.109-0.88 330.029-1.9 328.959-2.93 328.289-4.58 327.609-6.23 327.609-8.64L327.609-8.64 327.609-15.72Q327.609-18.16 328.289-19.81 328.959-21.46 330.029-22.47 331.109-23.49 332.449-23.93 333.789-24.37 335.129-24.37L335.129-24.37Q336.329-24.37 337.219-24 338.109-23.63 338.749-23.05 339.379-22.46 339.789-21.73 340.189-21 340.409-20.26L340.409-20.26Q340.409-21.48 340.749-22.29 341.089-23.1 341.629-23.57 342.169-24.05 342.839-24.23 343.509-24.41 344.169-24.41L344.169-24.41Q345.389-24.41 346.119-23.94 346.849-23.46 347.229-22.69 347.609-21.92 347.719-20.91 347.829-19.9 347.829-18.85L347.829-18.85ZM335.129-15.19L335.129-9.28Q335.129-8.62 335.179-7.98 335.229-7.35 335.449-6.84 335.669-6.32 336.099-6.02 336.529-5.71 337.279-5.71L337.279-5.71Q338.229-5.71 338.829-6.14 339.429-6.57 339.769-7.46 340.109-8.35 340.249-9.7 340.379-11.06 340.409-12.94L340.409-12.94Q340.409-13.7 340.269-14.69 340.139-15.67 339.799-16.55 339.459-17.43 338.849-18.04 338.229-18.65 337.279-18.65L337.279-18.65Q336.529-18.65 336.099-18.35 335.669-18.04 335.449-17.55 335.229-17.07 335.179-16.44 335.129-15.82 335.129-15.19L335.129-15.19ZM353.879-5.47L353.879-28.76Q353.879-29.79 353.989-30.76 354.099-31.74 354.489-32.5 354.879-33.25 355.619-33.72 356.349-34.18 357.589-34.18L357.589-34.18Q358.859-34.18 359.589-33.72 360.329-33.25 360.709-32.5 361.079-31.74 361.189-30.76 361.299-29.79 361.299-28.76L361.299-28.76 361.299-5.47Q361.299-4.44 361.189-3.45 361.079-2.47 360.709-1.7 360.329-0.93 359.589-0.46 358.859 0 357.589 0L357.589 0Q356.349 0 355.619-0.46 354.879-0.93 354.489-1.7 354.099-2.47 353.989-3.45 353.879-4.44 353.879-5.47L353.879-5.47ZM369.699-24.41L371.069-24.41 371.069-28.71Q371.069-29.74 371.179-30.71 371.289-31.69 371.679-32.46 372.069-33.23 372.799-33.7 373.529-34.18 374.779-34.18L374.779-34.18Q375.999-34.18 376.729-33.7 377.459-33.23 377.839-32.46 378.219-31.69 378.329-30.71 378.439-29.74 378.439-28.71L378.439-28.71 378.439-24.41 380.439-24.41Q381.079-24.41 381.709-24.35 382.349-24.29 382.849-24 383.349-23.71 383.649-23.12 383.959-22.53 383.959-21.48L383.959-21.48Q383.959-20.48 383.649-19.9 383.349-19.31 382.849-19.02 382.349-18.73 381.709-18.64 381.079-18.55 380.439-18.55L380.439-18.55 378.439-18.55 378.439-10.01Q378.439-9.52 378.479-8.97 378.509-8.42 378.729-7.96 378.949-7.5 379.389-7.19 379.829-6.88 380.639-6.88L380.639-6.88Q381.519-6.88 382.139-6.75 382.759-6.62 383.159-6.27 383.569-5.93 383.759-5.32 383.959-4.71 383.959-3.76L383.959-3.76Q383.959-2.78 383.509-2.08 383.049-1.37 382.299-0.9 381.539-0.44 380.539-0.22 379.539 0 378.439 0L378.439 0Q376.709 0 375.469-0.37 374.239-0.73 373.419-1.4 372.599-2.08 372.129-3.02 371.649-3.96 371.419-5.13 371.189-6.3 371.129-7.65 371.069-9.01 371.069-10.5L371.069-10.5 371.069-18.55 369.699-18.55Q369.059-18.55 368.439-18.64 367.819-18.73 367.329-19.02 366.839-19.31 366.539-19.9 366.229-20.48 366.229-21.48L366.229-21.48Q366.229-22.53 366.539-23.12 366.839-23.71 367.329-24 367.819-24.29 368.439-24.35 369.059-24.41 369.699-24.41L369.699-24.41ZM409.349-15.67L409.349-5.52Q409.349-4.49 409.239-3.5 409.129-2.51 408.749-1.73 408.369-0.95 407.639-0.48 406.899 0 405.629 0L405.629 0Q404.369 0 403.619-0.48 402.879-0.95 402.469-1.73 402.069-2.51 401.949-3.5 401.829-4.49 401.829-5.52L401.829-5.52 401.829-15.14Q401.829-15.77 401.779-16.39 401.729-17.02 401.509-17.5 401.289-17.99 400.859-18.3 400.429-18.6 399.679-18.6L399.679-18.6Q398.699-18.6 398.089-17.96 397.479-17.31 397.129-16.17 396.769-15.04 396.639-13.49 396.499-11.94 396.499-10.16L396.499-10.16 396.499-5.52Q396.499-4.49 396.389-3.5 396.279-2.51 395.889-1.73 395.499-0.95 394.749-0.48 393.989 0 392.699 0L392.699 0Q391.429 0 390.689-0.48 389.959-0.95 389.579-1.73 389.199-2.51 389.089-3.5 388.979-4.49 388.979-5.52L388.979-5.52 388.979-28.66Q388.979-29.69 389.089-30.68 389.199-31.67 389.579-32.45 389.959-33.23 390.689-33.7 391.429-34.18 392.699-34.18L392.699-34.18Q393.989-34.18 394.749-33.7 395.499-33.23 395.889-32.45 396.279-31.67 396.389-30.68 396.499-29.69 396.499-28.66L396.499-28.66 396.499-20.31Q396.719-21.02 397.139-21.75 397.549-22.49 398.209-23.07 398.869-23.66 399.759-24.04 400.649-24.41 401.829-24.41L401.829-24.41Q403.169-24.41 404.519-23.96 405.879-23.51 406.939-22.49 407.999-21.46 408.669-19.79 409.349-18.12 409.349-15.67L409.349-15.67ZM422.769-4.05L422.769-4.05Q422.769-2.86 422.499-1.45 422.229-0.05 421.679 1.16 421.139 2.37 420.289 3.19 419.449 4 418.329 4L418.329 4Q417.909 4 417.529 3.71 417.159 3.42 417.159 2.78L417.159 2.78 417.159 2.59Q417.179 2.34 417.299 2.09 417.419 1.83 417.569 1.59 417.719 1.34 417.829 1.1 417.939 0.85 417.939 0.59L417.939 0.59Q417.939 0.32 417.689 0.15 417.449-0.02 417.089-0.22 416.739-0.42 416.329-0.67 415.909-0.93 415.559-1.35 415.199-1.78 414.959-2.43 414.709-3.08 414.709-4.05L414.709-4.05Q414.709-6.15 415.759-7.1 416.809-8.06 418.769-8.06L418.769-8.06Q420.789-8.06 421.779-7.1 422.769-6.15 422.769-4.05Z" fill="#c9a07a" data-fill-palette-color="accent"></path><path d="M482.928-31.15L490.688-10.11 491.278-10.11 491.278-30.37Q491.278-31.15 491.378-31.85 491.468-32.54 491.798-33.06 492.128-33.57 492.778-33.87 493.428-34.18 494.548-34.18L494.548-34.18Q495.798-34.18 496.518-33.87 497.238-33.57 497.598-33.06 497.968-32.54 498.068-31.85 498.158-31.15 498.158-30.37L498.158-30.37 498.158-5.62Q498.158-4.54 498.098-3.54 498.038-2.54 497.708-1.75 497.378-0.95 496.638-0.48 495.888 0 494.548 0L494.548 0 491.328 0Q490.178 0 489.408-0.45 488.638-0.9 488.128-1.55 487.618-2.2 487.308-2.91 487.008-3.61 486.838-4.1L486.838-4.1 479.458-24.07 478.878-24.07 478.878-3.81Q478.878-3.03 478.778-2.33 478.678-1.64 478.348-1.12 478.018-0.61 477.378-0.31 476.728 0 475.608 0L475.608 0Q474.338 0 473.598-0.31 472.868-0.61 472.498-1.12 472.138-1.64 472.038-2.33 471.938-3.03 471.938-3.81L471.938-3.81 471.938-28.56Q471.938-29.61 471.998-30.63 472.068-31.64 472.408-32.43 472.748-33.23 473.488-33.7 474.238-34.18 475.608-34.18L475.608-34.18 478.828-34.18Q480.048-34.18 480.818-33.7 481.588-33.23 482.078-32.67L482.078-32.67Q482.608-32.01 482.928-31.15L482.928-31.15ZM504.408-8.69L504.408-18.85Q504.408-19.9 504.528-20.9 504.658-21.9 505.058-22.68 505.458-23.46 506.208-23.94 506.948-24.41 508.218-24.41L508.218-24.41Q509.468-24.41 510.198-23.94 510.928-23.46 511.318-22.68 511.708-21.9 511.818-20.9 511.928-19.9 511.928-18.85L511.928-18.85 511.928-9.33Q511.928-8.62 511.988-7.97 512.048-7.32 512.268-6.82 512.488-6.32 512.918-6.02 513.348-5.71 514.078-5.71L514.078-5.71Q515.058-5.71 515.678-6.37 516.298-7.03 516.658-8.18 517.008-9.33 517.128-10.88 517.248-12.43 517.248-14.21L517.248-14.21 517.248-18.85Q517.248-19.9 517.378-20.9 517.498-21.9 517.898-22.68 518.298-23.46 519.048-23.94 519.788-24.41 521.058-24.41L521.058-24.41Q522.308-24.41 523.038-23.94 523.768-23.46 524.158-22.68 524.548-21.9 524.658-20.9 524.768-19.9 524.768-18.85L524.768-18.85 524.768-5.52Q524.768-4.47 524.698-3.48 524.628-2.49 524.258-1.72 523.888-0.95 523.148-0.48 522.398 0 521.058 0L521.058 0Q519.718 0 518.958-0.45 518.208-0.9 517.828-1.54 517.448-2.17 517.348-2.88 517.248-3.59 517.248-4.1L517.248-4.1Q517.058-3.39 516.638-2.66 516.228-1.93 515.578-1.34 514.928-0.76 514.028-0.38 513.128 0 511.928 0L511.928 0Q510.588 0 509.248-0.44 507.898-0.88 506.828-1.9 505.748-2.93 505.078-4.59 504.408-6.25 504.408-8.69L504.408-8.69ZM546.598-20.75L546.598-20.75Q546.598-18.85 545.658-17.97 544.718-17.09 542.978-17.09L542.978-17.09Q542.738-17.09 542.288-17.05 541.838-17.02 541.318-16.86 540.808-16.7 540.288-16.39 539.758-16.09 539.318-15.56 538.878-15.04 538.608-14.23 538.338-13.43 538.338-12.3L538.338-12.3 538.338-5.32Q538.338-4.32 538.228-3.37 538.118-2.42 537.728-1.67 537.338-0.93 536.608-0.46 535.878 0 534.628 0L534.628 0Q533.408 0 532.698-0.46 531.998-0.93 531.618-1.67 531.238-2.42 531.128-3.37 531.018-4.32 531.018-5.32L531.018-5.32 531.018-18.99Q531.018-20.02 531.128-20.98 531.238-21.95 531.618-22.71 531.998-23.46 532.698-23.91 533.408-24.37 534.628-24.37L534.628-24.37Q535.878-24.37 536.548-23.82 537.218-23.27 537.538-22.4 537.858-21.53 537.908-20.47 537.948-19.41 537.948-18.41L537.948-18.41 538.338-18.41Q538.688-19.78 539.248-20.89 539.808-22 540.488-22.77 541.178-23.54 541.958-23.95 542.738-24.37 543.518-24.37L543.518-24.37Q544.468-24.37 545.068-24.16 545.668-23.95 546.008-23.51 546.348-23.07 546.468-22.39 546.598-21.7 546.598-20.75ZM552.058-24.41L553.428-24.41 553.428-28.71Q553.428-29.74 553.538-30.71 553.648-31.69 554.038-32.46 554.428-33.23 555.158-33.7 555.898-34.18 557.138-34.18L557.138-34.18Q558.358-34.18 559.088-33.7 559.828-33.23 560.198-32.46 560.578-31.69 560.688-30.71 560.798-29.74 560.798-28.71L560.798-28.71 560.798-24.41 562.798-24.41Q563.438-24.41 564.068-24.35 564.708-24.29 565.208-24 565.708-23.71 566.018-23.12 566.318-22.53 566.318-21.48L566.318-21.48Q566.318-20.48 566.018-19.9 565.708-19.31 565.208-19.02 564.708-18.73 564.068-18.64 563.438-18.55 562.798-18.55L562.798-18.55 560.798-18.55 560.798-10.01Q560.798-9.52 560.838-8.97 560.878-8.42 561.098-7.96 561.318-7.5 561.758-7.19 562.188-6.88 562.998-6.88L562.998-6.88Q563.878-6.88 564.498-6.75 565.118-6.62 565.528-6.27 565.928-5.93 566.128-5.32 566.318-4.71 566.318-3.76L566.318-3.76Q566.318-2.78 565.868-2.08 565.418-1.37 564.658-0.9 563.898-0.44 562.898-0.22 561.898 0 560.798 0L560.798 0Q559.068 0 557.838-0.37 556.598-0.73 555.788-1.4 554.968-2.08 554.488-3.02 554.018-3.96 553.778-5.13 553.548-6.3 553.488-7.65 553.428-9.01 553.428-10.5L553.428-10.5 553.428-18.55 552.058-18.55Q551.428-18.55 550.808-18.64 550.178-18.73 549.688-19.02 549.208-19.31 548.898-19.9 548.598-20.48 548.598-21.48L548.598-21.48Q548.598-22.53 548.898-23.12 549.208-23.71 549.688-24 550.178-24.29 550.808-24.35 551.428-24.41 552.058-24.41L552.058-24.41ZM571.248-8.69L571.248-18.85Q571.248-19.9 571.368-20.9 571.488-21.9 571.898-22.68 572.298-23.46 573.038-23.94 573.788-24.41 575.058-24.41L575.058-24.41Q576.298-24.41 577.038-23.94 577.768-23.46 578.158-22.68 578.548-21.9 578.658-20.9 578.768-19.9 578.768-18.85L578.768-18.85 578.768-9.33Q578.768-8.62 578.828-7.97 578.888-7.32 579.108-6.82 579.328-6.32 579.758-6.02 580.188-5.71 580.918-5.71L580.918-5.71Q581.888-5.71 582.518-6.37 583.138-7.03 583.488-8.18 583.848-9.33 583.968-10.88 584.088-12.43 584.088-14.21L584.088-14.21 584.088-18.85Q584.088-19.9 584.208-20.9 584.338-21.9 584.738-22.68 585.138-23.46 585.888-23.94 586.628-24.41 587.898-24.41L587.898-24.41Q589.148-24.41 589.878-23.94 590.608-23.46 590.998-22.68 591.388-21.9 591.498-20.9 591.608-19.9 591.608-18.85L591.608-18.85 591.608-5.52Q591.608-4.47 591.538-3.48 591.458-2.49 591.098-1.72 590.728-0.95 589.988-0.48 589.238 0 587.898 0L587.898 0Q586.558 0 585.798-0.45 585.038-0.9 584.668-1.54 584.288-2.17 584.188-2.88 584.088-3.59 584.088-4.1L584.088-4.1Q583.898-3.39 583.478-2.66 583.068-1.93 582.418-1.34 581.768-0.76 580.868-0.38 579.968 0 578.768 0L578.768 0Q577.428 0 576.078-0.44 574.738-0.88 573.668-1.9 572.588-2.93 571.918-4.59 571.248-6.25 571.248-8.69L571.248-8.69ZM613.428-20.75L613.428-20.75Q613.428-18.85 612.488-17.97 611.548-17.09 609.818-17.09L609.818-17.09Q609.578-17.09 609.128-17.05 608.668-17.02 608.158-16.86 607.648-16.7 607.118-16.39 606.598-16.09 606.158-15.56 605.718-15.04 605.448-14.23 605.178-13.43 605.178-12.3L605.178-12.3 605.178-5.32Q605.178-4.32 605.068-3.37 604.958-2.42 604.568-1.67 604.178-0.93 603.448-0.46 602.718 0 601.468 0L601.468 0Q600.248 0 599.538-0.46 598.838-0.93 598.458-1.67 598.078-2.42 597.968-3.37 597.858-4.32 597.858-5.32L597.858-5.32 597.858-18.99Q597.858-20.02 597.968-20.98 598.078-21.95 598.458-22.71 598.838-23.46 599.538-23.91 600.248-24.37 601.468-24.37L601.468-24.37Q602.718-24.37 603.388-23.82 604.058-23.27 604.378-22.4 604.688-21.53 604.738-20.47 604.788-19.41 604.788-18.41L604.788-18.41 605.178-18.41Q605.518-19.78 606.088-20.89 606.648-22 607.328-22.77 608.008-23.54 608.798-23.95 609.578-24.37 610.358-24.37L610.358-24.37Q611.308-24.37 611.908-24.16 612.508-23.95 612.848-23.51 613.188-23.07 613.308-22.39 613.428-21.7 613.428-20.75ZM617.728-5.47L617.728-18.95Q617.728-19.97 617.838-20.95 617.948-21.92 618.338-22.69 618.728-23.46 619.458-23.94 620.188-24.41 621.438-24.41L621.438-24.41Q622.688-24.41 623.418-23.94 624.148-23.46 624.538-22.69 624.928-21.92 625.038-20.95 625.148-19.97 625.148-18.95L625.148-18.95 625.148-5.47Q625.148-4.44 625.038-3.45 624.928-2.47 624.538-1.7 624.148-0.93 623.418-0.46 622.688 0 621.438 0L621.438 0Q620.188 0 619.458-0.46 618.728-0.93 618.338-1.7 617.948-2.47 617.838-3.45 617.728-4.44 617.728-5.47L617.728-5.47ZM625.198-30.47L625.198-30.47Q625.198-28.59 624.218-27.67 623.248-26.76 621.488-26.76L621.488-26.76Q619.728-26.76 618.748-27.67 617.778-28.59 617.778-30.47L617.778-30.47Q617.778-32.42 618.748-33.3 619.728-34.18 621.488-34.18L621.488-34.18Q623.368-34.18 624.278-33.3 625.198-32.42 625.198-30.47ZM652.828-15.72L652.828-5.57Q652.828-4.52 652.708-3.52 652.588-2.51 652.188-1.73 651.778-0.95 651.038-0.48 650.288 0 649.028 0L649.028 0Q647.778 0 647.048-0.48 646.318-0.95 645.918-1.73 645.528-2.51 645.418-3.52 645.308-4.52 645.308-5.57L645.308-5.57 645.308-15.09Q645.308-15.77 645.248-16.43 645.188-17.09 644.968-17.59 644.748-18.09 644.328-18.4 643.898-18.7 643.168-18.7L643.168-18.7Q642.158-18.7 641.548-18.04 640.938-17.38 640.588-16.24 640.238-15.09 640.108-13.54 639.988-11.99 639.988-10.21L639.988-10.21 639.988-5.57Q639.988-4.52 639.868-3.52 639.748-2.51 639.348-1.73 638.938-0.95 638.198-0.48 637.448 0 636.178 0L636.178 0Q634.938 0 634.208-0.48 633.468-0.95 633.078-1.73 632.688-2.51 632.578-3.52 632.468-4.52 632.468-5.57L632.468-5.57 632.468-18.9Q632.468-19.95 632.548-20.94 632.618-21.92 632.988-22.69 633.348-23.46 634.098-23.94 634.838-24.41 636.178-24.41L636.178-24.41Q637.528-24.41 638.278-23.96 639.038-23.51 639.418-22.88 639.798-22.24 639.888-21.53 639.988-20.83 639.988-20.31L639.988-20.31Q640.188-21.02 640.598-21.75 641.018-22.49 641.658-23.07 642.308-23.66 643.208-24.04 644.118-24.41 645.308-24.41L645.308-24.41Q646.658-24.41 647.998-23.97 649.338-23.54 650.418-22.51 651.488-21.48 652.158-19.82 652.828-18.16 652.828-15.72L652.828-15.72ZM678.168-18.9L678.168 0.73Q678.168 2.93 677.578 4.44 676.978 5.96 676.048 6.96 675.118 7.96 673.988 8.52 672.848 9.08 671.758 9.36 670.678 9.64 669.768 9.7 668.868 9.77 668.408 9.77L668.408 9.77Q666.668 9.77 664.938 9.52 663.208 9.28 661.778 8.62 660.348 7.96 659.408 6.84 658.468 5.71 658.348 3.96L658.348 3.96Q658.348 3.66 658.448 3.3 658.538 2.93 658.888 2.6 659.228 2.27 659.908 2.04 660.598 1.81 661.768 1.81L661.768 1.81Q663.178 1.81 663.938 2.04 664.698 2.27 665.058 2.6 665.428 2.93 665.538 3.31 665.648 3.69 665.768 4L665.768 4Q665.968 4.52 666.538 4.72 667.108 4.93 668.108 4.93L668.108 4.93Q669.018 4.93 669.538 4.52 670.068 4.1 670.338 3.53 670.598 2.95 670.678 2.36 670.748 1.76 670.748 1.37L670.748 1.37 670.748-4.1Q670.528-3.37 670.128-2.64 669.728-1.9 669.088-1.32 668.458-0.73 667.568-0.37 666.668 0 665.478 0L665.478 0Q664.138 0 662.788-0.44 661.448-0.88 660.358-1.89 659.278-2.91 658.588-4.57 657.908-6.23 657.908-8.69L657.908-8.69 657.908-15.77Q657.908-18.19 658.588-19.84 659.278-21.48 660.358-22.51 661.448-23.54 662.788-23.97 664.138-24.41 665.478-24.41L665.478-24.41Q666.668-24.41 667.568-24.04 668.458-23.66 669.088-23.07 669.728-22.49 670.128-21.75 670.528-21.02 670.748-20.31L670.748-20.31Q670.748-20.8 670.838-21.51 670.918-22.22 671.288-22.86 671.648-23.51 672.408-23.96 673.168-24.41 674.508-24.41L674.508-24.41Q675.828-24.41 676.558-23.94 677.288-23.46 677.658-22.68 678.028-21.9 678.098-20.91 678.168-19.92 678.168-18.9L678.168-18.9ZM665.478-15.14L665.478-9.23Q665.478-8.59 665.528-7.96 665.578-7.32 665.798-6.82 666.018-6.32 666.438-6.02 666.868-5.71 667.628-5.71L667.628-5.71Q668.578-5.71 669.188-6.32 669.798-6.93 670.138-7.82 670.478-8.72 670.618-9.7 670.748-10.69 670.748-11.47L670.748-11.47Q670.728-13.33 670.588-14.7 670.458-16.06 670.118-16.96 669.768-17.85 669.178-18.27 668.578-18.7 667.628-18.7L667.628-18.7Q666.868-18.7 666.438-18.4 666.018-18.09 665.798-17.58 665.578-17.07 665.528-16.43 665.478-15.8 665.478-15.14L665.478-15.14Z" fill="#ddd2c6" data-fill-palette-color="primary"></path><path d="M730.857-34.18L740.377-34.18Q741.357-34.18 742.357-34.08 743.357-33.98 744.157-33.62 744.967-33.25 745.477-32.53 745.997-31.81 745.997-30.57L745.997-30.57Q745.997-29.32 745.477-28.6 744.967-27.88 744.157-27.51 743.357-27.15 742.357-27.05 741.357-26.95 740.377-26.95L740.377-26.95 734.567-26.95 734.567-20.61 737.647-20.61Q738.597-20.61 739.597-20.53 740.597-20.46 741.407-20.12 742.207-19.78 742.737-19.04 743.257-18.31 743.257-16.99L743.257-16.99Q743.257-15.67 742.747-14.94 742.237-14.21 741.427-13.87 740.617-13.53 739.617-13.45 738.617-13.38 737.647-13.38L737.647-13.38 734.567-13.38 734.567-5.62Q734.567-4.54 734.507-3.54 734.447-2.54 734.087-1.75 733.737-0.95 732.977-0.48 732.227 0 730.857 0L730.857 0Q729.467 0 728.707-0.48 727.947-0.95 727.607-1.75 727.267-2.54 727.207-3.54 727.147-4.54 727.147-5.62L727.147-5.62 727.147-28.56Q727.147-29.61 727.207-30.62 727.267-31.62 727.607-32.41 727.947-33.2 728.707-33.69 729.467-34.18 730.857-34.18L730.857-34.18ZM768.887-18.85L768.887-5.52Q768.887-4.49 768.817-3.5 768.747-2.51 768.377-1.73 768.007-0.95 767.277-0.48 766.547 0 765.227 0L765.227 0Q763.887 0 763.127-0.45 762.367-0.9 762.007-1.55 761.637-2.2 761.557-2.91 761.467-3.61 761.467-4.1L761.467-4.1Q761.247-3.39 760.847-2.66 760.447-1.93 759.807-1.34 759.177-0.76 758.287-0.38 757.387 0 756.197 0L756.197 0Q754.857 0 753.507-0.44 752.167-0.88 751.097-1.9 750.017-2.93 749.347-4.58 748.677-6.23 748.677-8.64L748.677-8.64 748.677-15.72Q748.677-18.16 749.347-19.81 750.017-21.46 751.097-22.47 752.167-23.49 753.507-23.93 754.857-24.37 756.197-24.37L756.197-24.37Q757.387-24.37 758.287-24 759.177-23.63 759.807-23.05 760.447-22.46 760.847-21.73 761.247-21 761.467-20.26L761.467-20.26Q761.467-21.48 761.807-22.29 762.157-23.1 762.687-23.57 763.227-24.05 763.897-24.23 764.567-24.41 765.227-24.41L765.227-24.41Q766.447-24.41 767.177-23.94 767.917-23.46 768.297-22.69 768.667-21.92 768.777-20.91 768.887-19.9 768.887-18.85L768.887-18.85ZM756.197-15.19L756.197-9.28Q756.197-8.62 756.247-7.98 756.297-7.35 756.517-6.84 756.737-6.32 757.157-6.02 757.587-5.71 758.347-5.71L758.347-5.71Q759.297-5.71 759.897-6.14 760.497-6.57 760.837-7.46 761.177-8.35 761.307-9.7 761.447-11.06 761.467-12.94L761.467-12.94Q761.467-13.7 761.337-14.69 761.197-15.67 760.857-16.55 760.517-17.43 759.907-18.04 759.297-18.65 758.347-18.65L758.347-18.65Q757.587-18.65 757.157-18.35 756.737-18.04 756.517-17.55 756.297-17.07 756.247-16.44 756.197-15.82 756.197-15.19L756.197-15.19ZM790.327-20.75L790.327-20.75Q790.327-18.85 789.387-17.97 788.447-17.09 786.707-17.09L786.707-17.09Q786.467-17.09 786.017-17.05 785.567-17.02 785.047-16.86 784.537-16.7 784.017-16.39 783.487-16.09 783.047-15.56 782.607-15.04 782.337-14.23 782.067-13.43 782.067-12.3L782.067-12.3 782.067-5.32Q782.067-4.32 781.957-3.37 781.847-2.42 781.457-1.67 781.067-0.93 780.337-0.46 779.607 0 778.357 0L778.357 0Q777.137 0 776.427-0.46 775.727-0.93 775.347-1.67 774.967-2.42 774.857-3.37 774.747-4.32 774.747-5.32L774.747-5.32 774.747-18.99Q774.747-20.02 774.857-20.98 774.967-21.95 775.347-22.71 775.727-23.46 776.427-23.91 777.137-24.37 778.357-24.37L778.357-24.37Q779.607-24.37 780.277-23.82 780.947-23.27 781.267-22.4 781.587-21.53 781.637-20.47 781.677-19.41 781.677-18.41L781.677-18.41 782.067-18.41Q782.417-19.78 782.977-20.89 783.537-22 784.217-22.77 784.907-23.54 785.687-23.95 786.467-24.37 787.247-24.37L787.247-24.37Q788.197-24.37 788.797-24.16 789.397-23.95 789.737-23.51 790.077-23.07 790.197-22.39 790.327-21.7 790.327-20.75ZM810.587 0L810.587 0Q809.337 0 808.607-0.48 807.877-0.95 807.487-1.73 807.097-2.51 806.987-3.5 806.877-4.49 806.877-5.52L806.877-5.52 806.877-15.19Q806.877-15.84 806.817-16.48 806.747-17.11 806.527-17.6 806.317-18.09 805.887-18.4 805.457-18.7 804.727-18.7L804.727-18.7Q803.747-18.7 803.137-18.04 802.527-17.38 802.177-16.25 801.817-15.11 801.687-13.57 801.547-12.04 801.547-10.25L801.547-10.25 801.547-5.52Q801.547-4.49 801.437-3.5 801.327-2.51 800.957-1.73 800.577-0.95 799.847-0.48 799.107 0 797.837 0L797.837 0Q796.567 0 795.837-0.48 795.107-0.95 794.727-1.73 794.347-2.51 794.237-3.5 794.127-4.49 794.127-5.52L794.127-5.52 794.127-18.9Q794.127-19.92 794.217-20.91 794.297-21.9 794.667-22.68 795.037-23.46 795.777-23.94 796.527-24.41 797.837-24.41L797.837-24.41Q799.187-24.41 799.927-23.96 800.677-23.51 801.037-22.86 801.407-22.22 801.477-21.51 801.547-20.8 801.547-20.31L801.547-20.31Q801.767-21.02 802.247-21.75 802.727-22.49 803.457-23.07 804.187-23.66 805.137-24.04 806.097-24.41 807.267-24.41L807.267-24.41Q808.877-24.41 810.387-23.63 811.907-22.85 812.977-21.09L812.977-21.09Q813.347-21.92 814.047-22.55 814.757-23.17 815.667-23.58 816.567-24 817.587-24.21 818.617-24.41 819.617-24.41L819.617-24.41Q820.957-24.41 822.307-23.97 823.647-23.54 824.717-22.51 825.797-21.48 826.467-19.84 827.137-18.19 827.137-15.77L827.137-15.77 827.137-5.52Q827.137-4.49 827.017-3.5 826.897-2.51 826.507-1.73 826.117-0.95 825.367-0.48 824.627 0 823.377 0L823.377 0Q822.107 0 821.367-0.48 820.617-0.95 820.227-1.73 819.837-2.51 819.727-3.5 819.617-4.49 819.617-5.52L819.617-5.52 819.617-15.19Q819.617-15.84 819.547-16.48 819.467-17.11 819.247-17.6 819.027-18.09 818.597-18.4 818.157-18.7 817.417-18.7L817.417-18.7Q816.637-18.7 816.087-18.21 815.537-17.72 815.177-16.87 814.807-16.02 814.617-14.83 814.417-13.65 814.347-12.26L814.347-12.26 814.347-5.52Q814.347-4.49 814.237-3.5 814.127-2.51 813.737-1.73 813.347-0.95 812.597-0.48 811.857 0 810.587 0ZM839.437-18.02L839.437-18.02Q839.437-17.53 839.757-17.11 840.077-16.7 840.627-16.32 841.177-15.94 841.897-15.58 842.617-15.21 843.397-14.84L843.397-14.84Q844.587-14.26 845.837-13.59 847.077-12.92 848.107-12.01 849.127-11.11 849.777-9.92 850.427-8.74 850.427-7.13L850.427-7.13Q850.427-5.66 849.997-4.54 849.567-3.42 848.867-2.6 848.157-1.78 847.217-1.25 846.277-0.71 845.237-0.39 844.197-0.07 843.127 0.06 842.047 0.2 841.097 0.2L841.097 0.2Q839.217 0.2 837.827-0.12 836.437-0.44 835.437-0.96 834.437-1.49 833.787-2.16 833.137-2.83 832.777-3.56 832.407-4.3 832.257-5.02 832.117-5.74 832.117-6.35L832.117-6.35Q832.117-7.81 832.937-8.5 833.747-9.18 835.437-9.18L835.437-9.18Q836.657-9.18 837.437-8.52 838.217-7.86 838.267-6.4L838.267-6.4Q838.297-5.91 838.547-5.62 838.807-5.32 839.207-5.14 839.607-4.96 840.097-4.9 840.587-4.83 841.047-4.83L841.047-4.83Q842.007-4.83 842.597-5.33 843.197-5.83 843.197-6.64L843.197-6.64Q843.197-7.32 842.797-7.92 842.397-8.52 841.737-9.03 841.077-9.55 840.237-10.02 839.387-10.5 838.507-10.99L838.507-10.99Q837.417-11.57 836.307-12.23 835.187-12.89 834.287-13.7 833.387-14.5 832.827-15.52 832.257-16.53 832.257-17.82L832.257-17.82Q832.257-19.73 832.887-21.01 833.507-22.29 834.707-23.08 835.897-23.88 837.617-24.22 839.337-24.56 841.537-24.61L841.537-24.61 841.927-24.61Q843.907-24.61 845.287-24.27 846.667-23.93 847.577-23.38 848.497-22.83 849.027-22.14 849.547-21.46 849.807-20.76 850.057-20.07 850.117-19.43 850.177-18.8 850.177-18.36L850.177-18.36Q850.177-17.63 849.877-17.15 849.567-16.67 849.067-16.39 848.567-16.11 847.937-16 847.297-15.89 846.617-15.87L846.617-15.87Q846.027-15.87 845.557-16.06 845.077-16.26 844.737-16.55 844.397-16.85 844.217-17.21 844.027-17.58 844.027-17.92L844.027-17.92Q843.977-18.85 843.287-19.34 842.587-19.82 841.587-19.82L841.587-19.82Q841.177-19.82 840.797-19.74 840.417-19.65 840.107-19.45 839.807-19.24 839.627-18.9 839.437-18.55 839.437-18.02ZM863.557-4.05L863.557-4.05Q863.557-1.98 862.507-0.99 861.457 0 859.557 0L859.557 0Q857.597 0 856.547-0.99 855.497-1.98 855.497-4.05L855.497-4.05Q855.497-6.15 856.547-7.1 857.597-8.06 859.557-8.06L859.557-8.06Q861.577-8.06 862.567-7.1 863.557-6.15 863.557-4.05Z" fill="#c9a07a" data-fill-palette-color="accent"></path></g></svg></g></svg></g></svg></g></svg></g><g transform="matrix(1,0,0,1,47.29746815999998,0)"><svg viewBox="0 0 151.05858048 100.760826581441" height="100.760826581441" width="151.05858048"><g><svg xmlns="http://www.w3.org/2000/svg" xmlns:xlink="http://www.w3.org/1999/xlink" version="1.1" x="0" y="0" viewBox="10.752 24.096999999999994 77.668 51.807" enable-background="new 0 0 100 100" xml:space="preserve" height="100.760826581441" width="151.05858048" class="icon-icon-0" data-fill-palette-color="accent" id="icon-0"><path d="M75.586 38.413l-1-0.806-2-1.612-1-0.806-2-1.612-1-0.807-2-1.612-1-0.806-2-1.612-1-0.806-2-1.612-0.278-0.225-2.481-2H41.347l-2.481 2-0.28 0.226-2 1.612-1 0.806-2 1.612-1 0.806-2 1.612-1 0.807-2 1.612-1 0.806-2 1.612-1 0.806L10.752 48.759l2.511 3.114 6.901-5.563v29.594h58.843V46.309l6.902 5.564 2.511-3.114L75.586 38.413zM51.586 28.096v6.257h-1v-6.257H51.586zM46.586 45.258v-0.082-0.75h5.999v0.75 0.082H46.586zM48.586 28.096v6.257h-1v-6.257H48.586zM64.988 71.865l-3.106-5.49 3.106-5.49V71.865zM61.021 64.852l-3.257-5.757h6.514L61.021 64.852zM43.119 73.631l-4.105-7.256 4.105-7.256V73.631zM56.053 59.118l4.106 7.257-4.106 7.257V59.118zM38.152 64.852l-3.257-5.757h6.514L38.152 64.852zM34.185 60.885l3.106 5.49-3.106 5.49V60.885zM34.471 74.404l3.681-6.506 3.681 6.506H34.471zM57.339 74.404l3.681-6.506 3.681 6.506H57.339zM77.507 74.404H66.988v-15.31h5.171v-3H27.012v3h5.173v15.31H21.664V54.481h1.922v-10.93l1-0.806v11.736h2V41.133l1-0.806v14.154h2V38.715l1-0.806v16.573h2V36.296l1-0.806v18.991h2V33.878l1-0.806v21.41h2V31.459l1-0.806v23.828h2v-25.44l1-0.806v26.247h2V28.096h1v26.386h2v-7.724h1v7.724h2v-7.724h1v7.724h2V28.096h1v26.386h2V28.233l1 0.806v25.442h2V30.652l1 0.806v23.023h2V33.071l1 0.806v20.604h2V35.489l1 0.806v18.186h2V37.908l1 0.806v15.768h2V40.327l1 0.806v13.349h2V42.745l1 0.806v10.93h1.921V74.404z" fill="#c9a07a" data-fill-palette-color="accent"></path></svg></g></svg></g><g></g></svg></g></svg></g><g><path d="M159.601 36.702A78.072 78.072 0 0 1 235.919 36.702L231.903 36.702A74.056 74.056 0 0 0 163.617 36.702L159.601 36.702M159.601 210.498A78.072 78.072 0 0 0 235.919 210.498L231.903 210.498A74.056 74.056 0 0 1 163.617 210.498L159.601 210.498" fill="#ddd2c6" stroke="transparent" data-fill-palette-color="tertiary"></path></g></svg></g><defs></defs></svg><rect width="395.52" height="247.2" fill="none" stroke="none" visibility="hidden"></rect></g></svg></g></svg>